<?xml version="1.0" standalone="no"?>
<!DOCTYPE svg PUBLIC "-//W3C//DTD SVG 20010904//EN" "http://www.w3.org/TR/2001/REC-SVG-20010904/DTD/svg10.dtd">
<!-- Created using Krita: http://krita.org -->
<svg xmlns="http://www.w3.org/2000/svg" 
    xmlns:xlink="http://www.w3.org/1999/xlink"
    xmlns:krita="http://krita.org/namespaces/svg/krita"
    xmlns:sodipodi="http://sodipodi.sourceforge.net/DTD/sodipodi-0.dtd"
    width="1296pt"
    height="964.8pt"
    viewBox="0 0 1296 964.8">
<defs>
  <linearGradient id="gradient0" gradientUnits="objectBoundingBox" x1="0" y1="0" x2="1" y2="1" spreadMethod="reflect">
   <stop stop-color="#00fff2" offset="0" stop-opacity="0"/>
   <stop stop-color="#49e9e0" offset="0.0920245423913002" stop-opacity="0.16078431372549"/>
   <stop stop-color="#49e9e0" offset="0.699386477470398" stop-opacity="0.129411764705882"/>
  </linearGradient>
  <linearGradient id="gradient1" gradientUnits="objectBoundingBox" x1="0" y1="0" x2="1" y2="1" spreadMethod="pad">
   <stop stop-color="#7d7972" offset="0" stop-opacity="0.501960784313725"/>
   <stop stop-color="#7c7c7c" offset="0.907975435256958" stop-opacity="0.129411764705882"/>
  </linearGradient>
  <linearGradient id="gradient2" gradientUnits="objectBoundingBox" x1="0" y1="0" x2="1.4142135623731" y2="0" spreadMethod="pad">
   <stop stop-color="#b6fffa" offset="0" stop-opacity="1"/>
   <stop stop-color="#b6fffa" offset="0.803797483444214" stop-opacity="1"/>
  </linearGradient>
  <linearGradient id="gradient3" gradientUnits="objectBoundingBox" x1="0" y1="0" x2="1" y2="1" spreadMethod="pad">
   <stop stop-color="#dafffc" offset="0" stop-opacity="1"/>
   <stop stop-color="#dafffc" offset="1" stop-opacity="1"/>
  </linearGradient>
  <linearGradient id="gradient4" gradientUnits="objectBoundingBox" x1="0" y1="0" x2="1" y2="1" spreadMethod="pad">
   <stop stop-color="#dafffc" offset="0" stop-opacity="1"/>
   <stop stop-color="#dafffc" offset="1" stop-opacity="1"/>
  </linearGradient>
  <linearGradient id="gradient5" gradientUnits="objectBoundingBox" x1="0" y1="0" x2="1" y2="1" spreadMethod="pad">
   <stop stop-color="#dafffc" offset="0" stop-opacity="1"/>
   <stop stop-color="#dafffc" offset="1" stop-opacity="1"/>
  </linearGradient>
  <linearGradient id="gradient6" gradientUnits="objectBoundingBox" x1="0" y1="0" x2="1" y2="1" spreadMethod="pad">
   <stop stop-color="#dafffc" offset="0" stop-opacity="1"/>
   <stop stop-color="#dafffc" offset="1" stop-opacity="1"/>
  </linearGradient>
  <linearGradient id="gradient7" gradientUnits="objectBoundingBox" x1="0" y1="0" x2="1" y2="1" spreadMethod="pad">
   <stop stop-color="#dafffc" offset="0" stop-opacity="1"/>
   <stop stop-color="#dafffc" offset="1" stop-opacity="1"/>
  </linearGradient>
  <linearGradient id="gradient8" gradientUnits="objectBoundingBox" x1="0" y1="0" x2="1.4142135623731" y2="0" spreadMethod="pad">
   <stop stop-color="#63b5c8" offset="0" stop-opacity="1"/>
   <stop stop-color="#d8fefb" offset="1" stop-opacity="1"/>
  </linearGradient>
  <linearGradient id="gradient9" gradientUnits="objectBoundingBox" x1="0" y1="0" x2="1" y2="1" spreadMethod="pad">
   <stop stop-color="#dafffc" offset="0" stop-opacity="1"/>
   <stop stop-color="#d4fcfb" offset="0.828220844268799" stop-opacity="1"/>
   <stop stop-color="#d8fefb" offset="0.987730085849762" stop-opacity="1"/>
   <stop stop-color="#95e1f3" offset="1" stop-opacity="1"/>
  </linearGradient>
  <linearGradient id="gradient10" gradientUnits="objectBoundingBox" x1="0" y1="0" x2="1" y2="1" spreadMethod="pad">
   <stop stop-color="#3f98bf" offset="0.24539877474308" stop-opacity="1"/>
   <stop stop-color="#76bcdc" offset="0.588957071304321" stop-opacity="1"/>
   <stop stop-color="#76bcdc" offset="0.914110422134399" stop-opacity="1"/>
  </linearGradient>
  <linearGradient id="gradient11" gradientUnits="objectBoundingBox" x1="0" y1="0" x2="1" y2="1" spreadMethod="pad">
   <stop stop-color="#25e5da" offset="0.388601" stop-opacity="1"/>
   <stop stop-color="#48e9e0" offset="0.476684" stop-opacity="0.92156862745098"/>
   <stop stop-color="#ffffff" offset="1" stop-opacity="1"/>
  </linearGradient>
  <linearGradient id="gradient12" gradientUnits="objectBoundingBox" x1="0" y1="0" x2="1" y2="1" spreadMethod="pad">
   <stop stop-color="#25e5da" offset="0.202453987730061" stop-opacity="0.909803921568627"/>
   <stop stop-color="#48e9e0" offset="0.766871165644172" stop-opacity="0.92156862745098"/>
  </linearGradient>
  <linearGradient id="gradient13" gradientUnits="objectBoundingBox" x1="0" y1="0" x2="1" y2="1" spreadMethod="pad">
   <stop stop-color="#25e5da" offset="0.202453987730061" stop-opacity="0.909803921568627"/>
   <stop stop-color="#48e9e0" offset="0.766871165644172" stop-opacity="0.92156862745098"/>
  </linearGradient>
  <linearGradient id="gradient14" gradientUnits="objectBoundingBox" x1="0" y1="0" x2="1" y2="1" spreadMethod="pad">
   <stop stop-color="#25e5da" offset="0.202453987730061" stop-opacity="0.909803921568627"/>
   <stop stop-color="#48e9e0" offset="0.766871165644172" stop-opacity="0.92156862745098"/>
  </linearGradient>
  <linearGradient id="gradient15" gradientUnits="objectBoundingBox" x1="0" y1="0" x2="1" y2="1" spreadMethod="pad">
   <stop stop-color="#25e5da" offset="0.388601005077362" stop-opacity="0.909803921568627"/>
   <stop stop-color="#48e9e0" offset="0.476684004068375" stop-opacity="0.92156862745098"/>
   <stop stop-color="#ffffff" offset="1" stop-opacity="1"/>
  </linearGradient>
  <linearGradient id="gradient16" gradientUnits="objectBoundingBox" x1="0" y1="0" x2="1" y2="1" spreadMethod="pad">
   <stop stop-color="#25e5da" offset="0.20245398581028" stop-opacity="0.909803921568627"/>
   <stop stop-color="#48e9e0" offset="0.766871154308319" stop-opacity="0.92156862745098"/>
  </linearGradient>
  <linearGradient id="gradient17" gradientUnits="objectBoundingBox" x1="0" y1="0" x2="1" y2="1" spreadMethod="pad">
   <stop stop-color="#25e5da" offset="0.20245398581028" stop-opacity="0.909803921568627"/>
   <stop stop-color="#48e9e0" offset="0.766871154308319" stop-opacity="0.92156862745098"/>
  </linearGradient>
  <linearGradient id="gradient18" gradientUnits="objectBoundingBox" x1="0" y1="0" x2="1" y2="1" spreadMethod="pad">
   <stop stop-color="#25e5da" offset="0.20245398581028" stop-opacity="0.909803921568627"/>
   <stop stop-color="#48e9e0" offset="0.766871154308319" stop-opacity="0.92156862745098"/>
  </linearGradient>
 </defs>
<path id="shape0" transform="translate(29.3630686295128, 96.3028081982891)" fill="url(#gradient0)" fill-rule="evenodd" d="M1206.16 531.777C1215.27 553.65 1224.2 586.066 1224.88 609.537C1225.63 635.73 1219.98 673.916 1209.04 697.377C1195.24 726.94 1164.35 767.373 1137.04 783.777C1070.23 823.899 949.127 826.692 867.757 839.937C824.008 847.058 765.088 855.113 720.877 857.217C642.513 860.948 537.421 851.467 458.797 851.457C419.053 851.452 365.249 859.543 326.317 854.337C294.992 850.149 252.95 837.149 224.077 824.097C195.513 811.186 158.072 788.715 134.797 767.937C106.311 742.507 74.4413 699.804 54.1569 667.137C35.4291 636.977 10.5928 593.2 3.75693 559.137C-2.36002 528.657 -1.06771 482.115 8.07693 452.577C17.8408 421.039 47.5502 382.788 68.5569 356.097C84.5249 335.809 109.06 310.511 129.037 294.177C154.757 273.147 193.307 249.525 222.637 233.697C276.087 204.853 351.051 171.598 408.397 151.617C532.761 108.285 706.994 74.8574 834.637 40.7372C878.78 28.9373 939.215 -4.07535 981.517 0.4172C1026.59 5.20445 1093.41 42.102 1125.52 75.2972C1140.04 90.3145 1153.66 120.655 1157.2 141.537C1162.22 171.206 1154.88 215.917 1145.68 245.217C1139.03 266.393 1114.05 290.259 1109.68 311.457C1105.06 333.818 1109.66 368.548 1116.88 390.657C1122.97 409.332 1140.59 431.285 1151.44 448.257C1165.5 470.256 1191.38 496.296 1206.16 531.777Z"/><path id="shape1" transform="translate(649.410981136279, 82.66522142657)" fill="url(#gradient1)" fill-rule="evenodd" d="M216.029 778.695C229.275 780.083 253.338 785.361 260.669 778.695C270.646 769.623 257.275 731.071 266.429 718.215C299.344 671.987 444.482 672.569 465.149 627.495C490.543 572.11 392.937 447.74 390.269 369.735C388.116 306.777 445.785 217.891 436.349 158.055C431.487 127.221 404.811 80.2918 380.189 61.5748C332.581 25.3845 208.638 -16.7674 171.389 6.85479C42.4746 88.608 -54.6977 608.761 34.589 741.255C55.314 772.009 152.839 772.071 216.029 778.695Z"/><rect id="shape01" transform="translate(280.710000104716, 48.6800031352477)" fill="#b6fffa" fill-rule="evenodd" stroke="url(#gradient2)" stroke-width="64.8" stroke-linecap="square" stroke-linejoin="bevel" width="721.620000668936" height="578.879982516577" rx="42.48" ry="55.2652411844772"/><rect id="shape11" transform="matrix(-0.000897720275391745 -0.999999597049073 0.999999597049073 -0.000897720275391745 378.83161549884 216.923375219785)" fill="#dafffc" fill-rule="evenodd" stroke="url(#gradient3)" stroke-width="28.8" stroke-linecap="square" stroke-linejoin="bevel" width="113.641690704328" height="538.448593627952" rx="24.6780836421288" ry="26.9976960505495"/><rect id="shape01" transform="matrix(-0.000897720232606578 -0.999999549389315 0.999999549389315 -0.000897720232606578 378.546338514032 506.287795976316)" fill="#dafffc" fill-rule="evenodd" stroke="url(#gradient4)" stroke-width="28.8" stroke-linecap="square" stroke-linejoin="bevel" width="247.553511162639" height="247.493734859801" rx="20.9202232211568" ry="20.9202232211568"/><rect id="shape011" transform="matrix(-0.000897720232606578 -0.999999549389315 0.999999549389315 -0.000897720232606578 668.183087195362 318.523281434394)" fill="#dafffc" fill-rule="evenodd" stroke="url(#gradient5)" stroke-width="28.8" stroke-linecap="square" stroke-linejoin="bevel" width="50.6246298114086" height="246.230200179012" rx="7.58423524036243" ry="7.58423524036243"/><rect id="shape02" transform="matrix(-0.000897720236671039 -0.999999553916876 0.999999553916876 -0.000897720236671039 667.722218309546 407.822832634613)" fill="#dafffc" fill-rule="evenodd" stroke="url(#gradient6)" stroke-width="28.8" stroke-linecap="square" stroke-linejoin="bevel" width="50.6246298114086" height="246.230200179012" rx="7.58423524036243" ry="7.58423524036243"/><rect id="shape03" transform="matrix(-0.00089772023667104 -0.999999553916876 0.999999553916876 -0.00089772023667104 668.802218235183 497.239414775687)" fill="#dafffc" fill-rule="evenodd" stroke="url(#gradient7)" stroke-width="28.8" stroke-linecap="square" stroke-linejoin="bevel" width="50.6246298114086" height="246.230200179012" rx="7.58423524036243" ry="7.58423524036243"/><rect id="shape2" transform="translate(248.399998818197, 561.680006103516)" fill="url(#gradient8)" fill-rule="evenodd" stroke="url(#gradient9)" stroke-opacity="0" stroke-width="0" stroke-linecap="square" stroke-linejoin="bevel" width="786.340055047428" height="153.36" rx="37.1800865714889" ry="37.1800865714889"/><path id="shape3" transform="translate(269.999998904273, 577.52000263305)" fill="none" stroke="#b6fffa" stroke-width="43.92" stroke-linecap="square" stroke-linejoin="miter" stroke-miterlimit="2" d="M0 0.72C247.44 0.48 494.88 0.24 742.32 0"/><rect id="shape011" transform="translate(505.44, 714.680006116069)" fill="url(#gradient10)" fill-rule="evenodd" stroke="#000000" stroke-opacity="0" stroke-width="0" stroke-linecap="square" stroke-linejoin="bevel" width="285.12" height="132.839999056617"/><path id="shape11" transform="translate(440.100000185876, 856.160005164961)" fill="none" stroke="#a1fcfa" stroke-width="28.8" stroke-linecap="square" stroke-linejoin="miter" stroke-miterlimit="2" d="M0 2.16L415.8 0"/><path id="shape21" transform="translate(409.075842445932, 326.593931025432)" fill="none" stroke="#2d2d2d" stroke-width="9.36" stroke-linecap="square" stroke-linejoin="miter" stroke-miterlimit="2" d="M0 0L0 577.806"/><path id="shape021" transform="matrix(-0.0031425665687669 -0.999995032510982 0.999995032510982 -0.0031425665687669 364.553903824251 363.513963503848)" fill="none" stroke="#2d2d2d" stroke-width="9.36" stroke-linecap="square" stroke-linejoin="miter" stroke-miterlimit="2" d="M0 0L0 133.056"/><path id="shape031" transform="matrix(-0.699958195114877 -0.714183756752821 0.714183756752821 -0.699958195114877 411.963764419837 426.815234301846)" fill="none" stroke="#2d2d2d" stroke-width="9.36" stroke-linecap="square" stroke-linejoin="miter" stroke-miterlimit="2" d="M0 0L0 86.859"/><path id="shape22" transform="matrix(1.00000002339846 0 0 1.00000002339846 897.635855869756 325.233944023695)" fill="none" stroke="#2d2d2d" stroke-width="9.36" stroke-linecap="square" stroke-linejoin="miter" stroke-miterlimit="2" d="M0 0L0 577.806"/><path id="shape022" transform="matrix(-0.00314256647624463 -0.999995003069499 0.999995003069499 -0.00314256647624463 805.593914458073 367.833949193318)" fill="none" stroke="#2d2d2d" stroke-width="9.36" stroke-linecap="square" stroke-linejoin="miter" stroke-miterlimit="2" d="M0 0L0 133.056"/><path id="shape032" transform="matrix(-0.734114535424229 0.679025566222682 -0.679025566222682 -0.734114535424229 894.11014268286 436.178617204521)" fill="none" stroke="#2d2d2d" stroke-width="9.36" stroke-linecap="square" stroke-linejoin="miter" stroke-miterlimit="2" d="M0 0L0 86.859"/><path id="shape21" transform="matrix(0.99893028181801 0.0462416702443993 -0.0462416702443993 0.99893028181801 726.058564696746 295.131500045972)" fill="none" stroke="#313b3a" stroke-width="13.32" stroke-linecap="square" stroke-linejoin="miter" stroke-miterlimit="2" d="M80.64 637.92L0 0"/><path id="shape31" transform="matrix(0.998497631971946 0.0547948806588418 -0.0547948806588418 0.998497631971946 788.043359678547 291.857482673123)" fill="none" stroke="#313b3a" stroke-width="13.68" stroke-linecap="square" stroke-linejoin="miter" stroke-miterlimit="2" d="M0 0L90.72 636.48"/><path id="shape4" transform="matrix(0.99893028181801 0.0462416702443993 -0.0462416702443993 0.99893028181801 772.744691368983 843.637094831782)" fill="none" stroke="#313b3a" stroke-width="10.8" stroke-linecap="square" stroke-linejoin="miter" stroke-miterlimit="2" d="M0 11.52L59.04 0"/><path id="shape021" transform="matrix(0.998930249075086 0.0462416687286903 -0.0462416687286903 0.998930249075086 765.763257076499 779.59855978795)" fill="none" stroke="#313b3a" stroke-width="10.8" stroke-linecap="square" stroke-linejoin="miter" stroke-miterlimit="2" d="M0 11.52L59.04 0"/><path id="shape031" transform="matrix(0.998930249075086 0.0462416687286903 -0.0462416687286903 0.998930249075086 761.167891215467 723.165694731651)" fill="none" stroke="#313b3a" stroke-width="10.8" stroke-linecap="square" stroke-linejoin="miter" stroke-miterlimit="2" d="M0 11.52L59.04 0"/><path id="shape04" transform="matrix(0.998930249075086 0.0462416687286903 -0.0462416687286903 0.998930249075086 758.277336993054 661.045579216555)" fill="none" stroke="#313b3a" stroke-width="10.8" stroke-linecap="square" stroke-linejoin="miter" stroke-miterlimit="2" d="M0 11.52L59.04 0"/><path id="shape05" transform="matrix(0.998930249075086 0.0462416687286903 -0.0462416687286903 0.998930249075086 755.120430748128 604.679302165885)" fill="none" stroke="#313b3a" stroke-width="10.8" stroke-linecap="square" stroke-linejoin="miter" stroke-miterlimit="2" d="M0 11.52L59.04 0"/><path id="shape06" transform="matrix(0.998930249075086 0.0462416687286903 -0.0462416687286903 0.998930249075086 750.391888875837 551.123356341798)" fill="none" stroke="#313b3a" stroke-width="10.8" stroke-linecap="square" stroke-linejoin="miter" stroke-miterlimit="2" d="M0 11.52L59.04 0"/><path id="shape07" transform="matrix(0.998930249075086 0.0462416687286903 -0.0462416687286903 0.998930249075086 745.729935009178 496.128950901607)" fill="none" stroke="#313b3a" stroke-width="10.8" stroke-linecap="square" stroke-linejoin="miter" stroke-miterlimit="2" d="M0 11.52L59.04 0"/><path id="shape08" transform="matrix(0.998930249075086 0.0462416687286903 -0.0462416687286903 0.998930249075086 742.359984401719 444.364939815361)" fill="none" stroke="#313b3a" stroke-width="10.8" stroke-linecap="square" stroke-linejoin="miter" stroke-miterlimit="2" d="M0 11.52L59.04 0"/><path id="shape09" transform="matrix(0.998930249075086 0.0462416687286903 -0.0462416687286903 0.998930249075086 736.139675253342 391.893978485651)" fill="none" stroke="#313b3a" stroke-width="10.8" stroke-linecap="square" stroke-linejoin="miter" stroke-miterlimit="2" d="M0 11.52L59.04 0"/><path id="shape010" transform="matrix(0.998930249075086 0.0462416687286903 -0.0462416687286903 0.998930249075086 731.344545375425 339.776492277671)" fill="none" stroke="#313b3a" stroke-width="10.8" stroke-linecap="square" stroke-linejoin="miter" stroke-miterlimit="2" d="M0 11.52L59.04 0"/><path id="shape0" transform="matrix(-0.789948353002374 0.0952502544038299 0.0980287192170461 0.812991269966876 781.348409722123 294.946770715249)" fill="#fedabb" fill-rule="evenodd" d="M3.31856 2.5344C6.58949 -1.44585 27.7986 -0.566995 32.1186 3.9744C35.5702 7.60299 35.1396 21.88 32.1186 27.0144C30.1746 30.3183 21.3039 30.9197 19.1586 34.2144C16.857 37.749 20.3204 47.6784 17.7186 50.0544C16.0697 51.5602 9.15056 51.5664 7.63856 50.0544C1.15856 43.5744 -3.41624 10.7297 3.31856 2.5344Z"/><path id="shape1" transform="matrix(-0.789948353002374 0.0952502544038299 0.0980287192170461 0.812991269966876 783.291347683292 291.805694808782)" fill="#1b1b1b" fill-rule="evenodd" d="M16.665 30.0728C15.012 32.2331 4.67618 32.6414 2.40974 30.5819C-1.64217 26.9001 0.570517 12.7312 0.882385 5.12607C0.926411 4.05246 0.780562 2.17319 1.3915 1.56225C3.22432 -0.270573 8.88128 -0.00232648 12.083 0.0348973C15.7552 0.0775921 20.6703 1.29958 24.3018 2.07136C28.4648 2.95612 37.6033 3.71436 38.0479 5.63518C38.3419 6.90499 33.3583 10.4978 30.9203 11.7446C26.9758 13.7618 18.444 12.4968 16.1559 15.3084C13.777 18.2316 18.139 28.1464 16.665 30.0728Z"/><path id="shape2" transform="matrix(-0.789948353002374 0.0952502544038299 0.0980287192170461 0.812991269966876 786.176949037183 328.390803618129)" fill="url(#gradient11)" fill-rule="evenodd" d="M5.59712 2.09606C8.17438 -0.246779 17.0213 -0.682862 20.3615 1.07783C22.6278 2.27245 23.9749 7.1084 25.4527 9.73281C27.6652 13.6621 29.9906 19.3189 32.5803 22.9699C35.3117 26.8205 39.4597 33.8064 43.2718 34.6795C45.9083 35.2834 51.3905 32.7727 53.4541 30.6066C56.3929 27.5219 55.8753 19.4185 58.5453 15.8422C59.294 14.8393 60.9332 13.536 62.1091 13.2966C63.3693 13.0401 65.9599 13.4594 66.6911 14.3149C67.9626 15.8023 67.7584 20.1919 67.2003 22.4607C65.8567 27.922 61.181 35.4236 57.0179 39.2616C54.6055 41.4856 49.8995 44.3341 46.8356 44.3528C41.8104 44.3834 34.1364 39.7402 30.0347 36.2069C27.46 33.9889 24.1276 26.2492 23.4162 26.5337C22.258 26.9968 25.0345 39.8552 26.4709 45.371C27.368 48.8157 29.1334 53.2925 30.5438 56.5716C31.6216 59.0773 35.3422 63.779 34.6168 64.7174C33.2488 66.4871 22.8807 61.2864 17.8159 61.1536C14.928 61.0779 11.0626 62.4519 8.14271 62.681C6.4729 62.812 3.38246 63.521 2.54242 62.681C-2.87967 57.2589 1.96884 37.3474 2.54242 26.5337C2.92426 19.3349 1.0738 6.20796 5.59712 2.09606Z"/><path id="shape3" transform="matrix(-0.789948353002374 0.0952502544038299 0.0980287192170461 0.812991269966876 742.437153330473 338.879260845695)" fill="#fedabb" fill-rule="evenodd" d="M2.39031 10.5385C0.911293 9.94216 -0.737961 2.9237 0.353843 1.37442C1.3086 0.0196195 6.40711 -0.361802 8.49971 0.356187C9.60091 0.734018 11.0962 2.30468 11.5544 3.41089C11.9324 4.32346 11.7013 5.92613 11.5544 6.97471C11.4017 8.06524 10.9079 10.515 10.5362 10.5385C10.1473 10.5632 9.80824 7.39522 9.00883 6.97471C8.4736 6.69316 5.43809 11.7675 2.39031 10.5385Z"/><path id="shape4" transform="matrix(-0.789948353002374 0.0952502544038299 0.0980287192170461 0.812991269966876 777.63219052658 381.889514537873)" fill="#1b1b1b" fill-rule="evenodd" d="M15.4808 0.268483C22.0938 3.20625 25.1433 23.4171 27.0008 33.7485C28.55 42.3648 31.7254 57.1955 27.7208 63.2685C26.4063 65.262 20.2729 67.7684 18.7208 66.8685C15.403 64.9448 17.0003 52.4483 15.8408 46.3485C14.722 40.4623 12.9869 32.6052 11.1608 26.9085C9.4941 21.709 7.6246 14.045 4.32083 9.98848C3.38095 8.83445 -0.0613713 7.86008 0.000832311 7.10848C0.190017 4.82261 11.8257 -1.35528 15.4808 0.268483Z"/><path id="shape5" transform="matrix(-0.789948353002374 0.0952502544038299 0.0980287192170461 0.812991269966876 790.124928649496 378.221604018658)" fill="#1b1b1b" fill-rule="evenodd" d="M30.9007 2.52916C30.8293 1.49499 21.3506 0.198254 17.2207 0.00915893C12.4984 -0.207058 4.51113 3.49653 1.38067 1.44916C1.15661 1.30262 1.06741 0.36055 1.02067 0.369159C-1.76058 0.88141 1.79818 47.8742 3.90067 68.0492C3.96864 68.7013 3.87857 69.9008 4.26067 70.2092C6.90195 72.3408 17.4418 71.8438 19.3807 69.4892C26.6975 60.6036 5.14882 26.102 11.1007 12.9692C11.8602 11.2933 15.3571 10.1522 17.2207 9.00916C20.5199 6.98557 31.0063 4.0611 30.9007 2.52916Z"/><path id="shape6" transform="matrix(-0.789948353002374 0.0952502544038299 0.0980287192170461 0.812991269966876 788.60318374586 378.090068773567)" fill="#1b1b1b" fill-rule="evenodd" d="M12.8568 0.289074C12.5268 -0.535005 3.98533 0.523567 0.765267 1.9437C0.502981 2.05938 -0.0329414 2.48751 0.00159214 2.5801C0.231556 3.19669 4.65889 2.69118 6.62011 2.45282C8.66927 2.20377 13.0252 0.709693 12.8568 0.289074Z"/><path id="shape7" transform="matrix(-0.789948353002374 0.0952502544038299 0.0980287192170461 0.812991269966876 794.074570115953 433.754598084709)" fill="#7dffff" fill-rule="evenodd" d="M0.872021 2.76889C-0.512409 4.55726 -0.178818 11.3572 1.38114 12.6967C5.75741 16.4543 28.3519 12.773 29.128 9.89653C29.5744 8.24216 20.479 1.58278 16.1455 0.477867C11.846 -0.618387 2.8744 0.182276 0.872021 2.76889Z"/><path id="shape8" transform="matrix(-0.789948353002374 0.0952502544038299 0.0980287192170461 0.812991269966876 771.265920182806 434.168369956279)" fill="#7dffff" fill-rule="evenodd" d="M0.860495 2.03778C-0.709158 3.85174 0.00970246 11.9482 1.87873 13.4929C5.57951 16.5515 23.7066 13.7948 24.5344 11.2019C25.1246 9.35314 16.5391 1.6493 12.3156 0.510427C9.88713 -0.144431 3.15715 -0.616332 0.860495 2.03778Z"/><path id="shape9" transform="matrix(-0.789948353002374 0.0952502544038299 0.0980287192170461 0.812991269966876 770.174127146606 317.394963185523)" fill="#fedabb" fill-rule="evenodd" d="M14.776 0.711407C15.8477 1.86775 15.4895 7.13777 14.2669 8.34816C12.1083 10.4852 4.48561 10.1216 0.775323 9.11184C0.523318 9.04325 0.0363068 8.78336 0.011648 8.60272C-0.250211 6.68442 3.9654 2.46432 6.37561 1.22052C8.3988 0.17645 13.5166 -0.647553 14.776 0.711407Z"/><path id="shape10" transform="matrix(-0.789948353002374 0.0952502544038299 0.0980287192170461 0.812991269966876 783.731587682293 328.87664458839)" fill="url(#gradient12)" fill-rule="evenodd" d="M0.287373 5.86955C-0.19124 5.61272 -0.0725305 2.16749 0.647373 1.36955C1.59603 0.318065 5.61987 -0.440777 6.49737 0.289552C6.51065 0.300601 6.50722 0.356818 6.49737 0.379552C5.63337 2.37386 1.26596 6.39468 0.287373 5.86955Z"/><path id="shape11" transform="matrix(-0.789948353002374 0.0952502544038299 0.0980287192170461 0.812991269966876 774.528320170852 310.406481829021)" fill="#fedabb" fill-rule="evenodd" d="M2.55043 3.07469C1.96945 3.24387 0.11951 2.13267 0.00484911 1.54734C-0.0688913 1.17089 0.716168 0.134301 1.15036 0.0199845C1.65589 -0.113113 2.90905 0.445022 3.18683 0.910939C3.37836 1.23219 3.34878 2.84221 2.55043 3.07469Z"/><path id="shape12" transform="matrix(-0.789948353002374 0.0952502544038299 0.0980287192170461 0.812991269966876 754.564060010423 321.568519171369)" fill="#ffffff" fill-rule="evenodd" d="M15.66 32.76C16.578 30.762 18.7527 28.0823 18.72 26.1C18.7191 26.0456 18.653 25.9756 18.63 25.92C18.3041 25.1332 17.8863 24.0514 17.73 23.22C17.631 22.6935 17.4945 21.9086 17.64 21.42C17.7388 21.0881 18.0895 20.664 18.36 20.43C18.787 20.0606 19.5242 19.6831 20.07 19.53C20.885 19.3014 22.0859 19.3523 22.95 19.35C23.8948 19.3475 25.3293 19.8705 26.1 19.53C29.5541 18.004 32.337 11.844 35.01 8.55C35.01 8.55 35.01 8.55 35.01 8.55C30.177 5.985 23.733 2.565 18.9 0C18.9 0 18.9 0 18.9 0C13.23 7.101 5.67 16.569 0 23.67"/><path id="shape13" transform="matrix(-0.789948353002374 0.0952502544038299 0.0980287192170461 0.812991269966876 768.806974295255 333.866050924911)" fill="url(#gradient13)" fill-rule="evenodd" d="M0.351602 0.288343C1.66459 -0.901136 7.48801 1.92296 10.5216 2.71834C10.7117 2.76818 11.0686 2.77373 11.1516 2.89834C11.7372 3.77729 11.0771 6.22303 10.6116 7.48834C10.5135 7.75487 10.2961 8.20403 10.0716 8.29834C8.06504 9.14143 3.06732 8.19985 1.5216 6.67834C0.411732 5.58586 -0.538101 1.09435 0.351602 0.288343Z"/><path id="shape02" transform="matrix(0.339105859616694 0.742925961411003 0.720163306606998 -0.343639884971792 753.271252259493 338.169530352619)" fill="#fedabb" fill-rule="evenodd" d="M1.75359 8.57998C0.668546 8.09447 -0.541386 2.38035 0.259587 1.11899C0.960019 0.0159736 4.7004 -0.294563 6.23558 0.289992C7.04345 0.597605 8.14043 1.87637 8.47658 2.777C8.75389 3.51997 8.58435 4.82479 8.47658 5.6785C8.36455 6.56636 8.00229 8.56085 7.7296 8.57998C7.4443 8.60009 7.19555 6.02086 6.60909 5.6785C6.21643 5.44927 3.98951 9.58058 1.75359 8.57998Z"/><path id="shape14" transform="matrix(-0.789948353002374 0.0952502544038299 0.0980287192170461 0.812991269966876 761.328449860412 338.328016323762)" fill="#fedabb" fill-rule="evenodd" d="M0.158869 3.48696C0.477085 3.90883 2.80898 3.89397 3.08387 3.48696C3.43491 2.96721 2.42966 0.364534 1.68887 0.0219634C1.49132 -0.0693929 0.904442 0.141486 0.743869 0.336963C0.283202 0.897769 -0.2807 2.90421 0.158869 3.48696Z"/><path id="shape15" transform="matrix(-0.789948353002374 0.0952502544038299 0.0980287192170461 0.812991269966876 770.067741917976 332.277303305969)" fill="url(#gradient14)" fill-rule="evenodd" d="M13.3807 3.37339C11.9867 1.08333 5.24592 0.0653316 1.73461 0.000495281C1.27868 -0.00792357 0.415458 0.0898312 0.207264 0.382333C-0.172937 0.916496 0.00396077 2.71727 0.461823 3.24612C1.43037 4.36482 4.59098 4.29676 6.38031 4.64619C8.21806 5.00507 11.2555 6.31759 12.5533 5.60078C13.0864 5.30639 13.6069 3.74507 13.3807 3.37339Z"/><path id="shape03" transform="matrix(0.795670160698137 0 0 0.818879983687722 425.66496059791 788.045861084787)" fill="#fedabb" fill-rule="evenodd" d="M3.31856 2.5344C6.58949 -1.44585 27.7986 -0.566994 32.1186 3.9744C35.5702 7.60299 35.1396 21.88 32.1186 27.0144C30.1746 30.3183 21.3039 30.9197 19.1586 34.2144C16.857 37.749 20.3204 47.6784 17.7186 50.0544C16.0697 51.5602 9.15056 51.5664 7.63856 50.0544C1.15856 43.5744 -3.41624 10.7297 3.31856 2.5344Z"/><path id="shape12" transform="matrix(0.795670160698137 0 0 0.818879983687722 423.359974990969 785.159964564073)" fill="#1b1b1b" fill-rule="evenodd" d="M16.665 30.0728C15.012 32.2331 4.67618 32.6414 2.40974 30.5819C-1.64217 26.9001 0.570515 12.7312 0.882383 5.12607C0.926409 4.05246 0.78056 2.17319 1.3915 1.56225C3.22432 -0.270573 8.88128 -0.0023265 12.083 0.0348973C15.7552 0.0775921 20.6703 1.29958 24.3018 2.07136C28.4648 2.95612 37.6033 3.71436 38.0479 5.63518C38.3419 6.90499 33.3583 10.4978 30.9203 11.7446C26.9758 13.7618 18.444 12.4968 16.1559 15.3084C13.777 18.2316 18.139 28.1464 16.665 30.0728Z"/><path id="shape22" transform="matrix(0.795670160698137 0 0 0.818879983687722 424.874753752782 821.827420658928)" fill="url(#gradient15)" fill-rule="evenodd" d="M5.59712 2.09606C8.17438 -0.246779 17.0213 -0.682862 20.3615 1.07783C22.6278 2.27245 23.9749 7.1084 25.4527 9.73281C27.6652 13.6621 29.9906 19.3189 32.5803 22.9699C35.3117 26.8205 39.4597 33.8064 43.2718 34.6795C45.9083 35.2834 51.3905 32.7727 53.4541 30.6066C56.3929 27.5219 55.8753 19.4185 58.5453 15.8422C59.294 14.8393 60.9332 13.536 62.1091 13.2966C63.3693 13.0401 65.9599 13.4594 66.6911 14.3149C67.9626 15.8023 67.7584 20.1919 67.2003 22.4607C65.8567 27.922 61.181 35.4236 57.0179 39.2616C54.6055 41.4856 49.8995 44.3341 46.8356 44.3528C41.8104 44.3834 34.1364 39.7402 30.0347 36.2069C27.46 33.9889 24.1276 26.2492 23.4162 26.5337C22.258 26.9968 25.0345 39.8552 26.4709 45.371C27.368 48.8157 29.1334 53.2925 30.5438 56.5716C31.6216 59.0773 35.3422 63.779 34.6168 64.7174C33.2488 66.4871 22.8807 61.2864 17.8159 61.1536C14.928 61.0779 11.0626 62.4519 8.14271 62.681C6.4729 62.812 3.38246 63.521 2.54242 62.681C-2.87967 57.2589 1.96884 37.3474 2.54242 26.5337C2.92426 19.3349 1.0738 6.20796 5.59712 2.09606Z"/><path id="shape32" transform="matrix(0.795670160698137 0 0 0.818879983687722 469.555588553202 827.004330022617)" fill="#fedabb" fill-rule="evenodd" d="M2.39031 10.5385C0.911293 9.94216 -0.737961 2.9237 0.353843 1.37442C1.3086 0.0196198 6.40711 -0.361802 8.49971 0.356187C9.60091 0.734018 11.0962 2.30468 11.5544 3.41089C11.9324 4.32346 11.7013 5.92613 11.5544 6.97471C11.4017 8.06524 10.9079 10.515 10.5362 10.5385C10.1473 10.5632 9.80824 7.39522 9.00883 6.97471C8.4736 6.69316 5.43809 11.7675 2.39031 10.5385Z"/><path id="shape41" transform="matrix(0.795670160698137 0 0 0.818879983687722 439.762434112149 873.918513433617)" fill="#1b1b1b" fill-rule="evenodd" d="M15.4808 0.268482C22.0938 3.20625 25.1433 23.4171 27.0008 33.7485C28.55 42.3648 31.7254 57.1955 27.7208 63.2685C26.4063 65.262 20.2729 67.7684 18.7208 66.8685C15.403 64.9448 17.0003 52.4483 15.8408 46.3485C14.722 40.4623 12.9869 32.6052 11.1608 26.9085C9.4941 21.709 7.6246 14.045 4.32083 9.98848C3.38095 8.83445 -0.0613713 7.86008 0.00083231 7.10848C0.190017 4.82261 11.8257 -1.35528 15.4808 0.268482Z"/><path id="shape5" transform="matrix(0.795670160698137 0 0 0.818879983687722 426.920444386884 871.772493401791)" fill="#1b1b1b" fill-rule="evenodd" d="M30.9007 2.52916C30.8293 1.49499 21.3506 0.198254 17.2207 0.00915892C12.4984 -0.207058 4.51113 3.49653 1.38067 1.44916C1.15661 1.30262 1.06741 0.36055 1.02067 0.369159C-1.76058 0.88141 1.79818 47.8742 3.90067 68.0492C3.96864 68.7013 3.87857 69.9008 4.26067 70.2092C6.90195 72.3408 17.4418 71.8438 19.3807 69.4892C26.6975 60.6036 5.14882 26.102 11.1007 12.9692C11.8602 11.2933 15.3571 10.1522 17.2207 9.00916C20.5199 6.98557 31.0063 4.0611 30.9007 2.52916Z"/><path id="shape6" transform="matrix(0.795670160698137 0 0 0.818879983687722 428.415500984155 871.459734720897)" fill="#1b1b1b" fill-rule="evenodd" d="M12.8568 0.289074C12.5268 -0.535005 3.98533 0.523567 0.765267 1.9437C0.502981 2.05938 -0.0329414 2.48751 0.00159214 2.5801C0.231556 3.19669 4.65889 2.69118 6.62011 2.45282C8.66927 2.20377 13.0252 0.709693 12.8568 0.289074Z"/><path id="shape7" transform="matrix(0.795670160698137 0 0 0.818879983687722 429.647101901988 927.378953714066)" fill="#7dffff" fill-rule="evenodd" d="M0.872021 2.76889C-0.512409 4.55726 -0.178818 11.3572 1.38114 12.6967C5.75741 16.4543 28.3519 12.773 29.128 9.89653C29.5744 8.24216 20.479 1.58278 16.1455 0.477867C11.846 -0.618387 2.8744 0.182276 0.872021 2.76889Z"/><path id="shape8" transform="matrix(0.795670160698137 0 0 0.818879983687722 452.341263317753 925.059310048024)" fill="#7dffff" fill-rule="evenodd" d="M0.860495 2.03778C-0.709158 3.85174 0.00970228 11.9482 1.87873 13.4929C5.57951 16.5515 23.7066 13.7948 24.5344 11.2019C25.1246 9.35314 16.5391 1.6493 12.3156 0.510427C9.88713 -0.144431 3.15715 -0.616332 0.860495 2.03778Z"/><path id="shape9" transform="matrix(0.795670160698137 0 0 0.818879983687722 439.446175500407 808.994943473146)" fill="#fedabb" fill-rule="evenodd" d="M14.776 0.711407C15.8477 1.86775 15.4895 7.13777 14.2669 8.34816C12.1083 10.4852 4.48561 10.1216 0.775323 9.11184C0.523318 9.04325 0.0363068 8.78336 0.011648 8.60272C-0.250211 6.68442 3.9654 2.46432 6.37561 1.22052C8.3988 0.17645 13.5166 -0.647553 14.776 0.711407Z"/><path id="shape10" transform="matrix(0.795670160698137 0 0 0.818879983687722 427.36068964661 822.017031635701)" fill="url(#gradient16)" fill-rule="evenodd" d="M0.287373 5.86955C-0.19124 5.61272 -0.0725305 2.16749 0.647373 1.36955C1.59603 0.318065 5.61987 -0.440777 6.49737 0.289552C6.51065 0.300601 6.50722 0.356818 6.49737 0.379552C5.63337 2.37386 1.26596 6.39468 0.287373 5.86955Z"/><path id="shape111" transform="matrix(0.795670160698137 0 0 0.818879983687722 434.286698129085 802.577961311964)" fill="#fedabb" fill-rule="evenodd" d="M2.55043 3.07469C1.96945 3.24387 0.11951 2.13267 0.00484911 1.54734C-0.0688913 1.17089 0.716168 0.134301 1.15036 0.0199846C1.65589 -0.113113 2.90905 0.445022 3.18683 0.910939C3.37836 1.23219 3.34878 2.84221 2.55043 3.07469Z"/><path id="shape12" transform="matrix(0.795670160698137 0 0 0.818879983687722 455.443607086025 811.269794262178)" fill="#ffffff" fill-rule="evenodd" d="M15.66 32.76C16.578 30.762 18.7527 28.0823 18.72 26.1C18.7191 26.0456 18.653 25.9756 18.63 25.92C18.3041 25.1332 17.8863 24.0514 17.73 23.22C17.631 22.6935 17.4945 21.9086 17.64 21.42C17.7388 21.0881 18.0895 20.664 18.36 20.43C18.787 20.0606 19.5242 19.6831 20.07 19.53C20.885 19.3014 22.0859 19.3523 22.95 19.35C23.8948 19.3475 25.3293 19.8705 26.1 19.53C29.5541 18.004 32.337 11.844 35.01 8.55C35.01 8.55 35.01 8.55 35.01 8.55C30.177 5.985 23.733 2.565 18.9 0C18.9 0 18.9 0 18.9 0C13.23 7.101 5.67 16.569 0 23.67"/><path id="shape13" transform="matrix(0.795670160698137 0 0 0.818879983687722 442.775262723944 825.183921592296)" fill="url(#gradient17)" fill-rule="evenodd" d="M0.351602 0.288343C1.66459 -0.901136 7.48801 1.92296 10.5216 2.71834C10.7117 2.76818 11.0686 2.77373 11.1516 2.89834C11.7372 3.77729 11.0771 6.22303 10.6116 7.48834C10.5135 7.75487 10.2961 8.20403 10.0716 8.29834C8.06504 9.14143 3.06732 8.19985 1.5216 6.67834C0.411732 5.58586 -0.538101 1.09435 0.351602 0.288343Z"/><path id="shape04" transform="matrix(-0.247731077656064 0.778178047889844 -0.756121855156243 -0.254957431923731 458.714437245015 827.596661307571)" fill="#fedabb" fill-rule="evenodd" d="M1.75359 8.57998C0.668546 8.09447 -0.541386 2.38035 0.259587 1.11899C0.960019 0.0159737 4.7004 -0.294563 6.23558 0.289992C7.04345 0.597605 8.14043 1.87637 8.47658 2.777C8.75389 3.51997 8.58435 4.82479 8.47658 5.6785C8.36455 6.56636 8.00229 8.56085 7.7296 8.57998C7.4443 8.60009 7.19555 6.02086 6.60909 5.6785C6.21643 5.44927 3.98951 9.58058 1.75359 8.57998Z"/><path id="shape14" transform="matrix(0.795670160698137 0 0 0.818879983687722 450.73415288714 828.718540706262)" fill="#fedabb" fill-rule="evenodd" d="M0.158869 3.48696C0.477085 3.90883 2.80898 3.89397 3.08387 3.48696C3.43491 2.96721 2.42966 0.364534 1.68887 0.0219634C1.49132 -0.0693929 0.904442 0.141486 0.743869 0.336963C0.283202 0.897769 -0.2807 2.90421 0.158869 3.48696Z"/><path id="shape15" transform="matrix(0.795670160698137 0 0 0.818879983687722 441.333371238524 823.757526516496)" fill="url(#gradient18)" fill-rule="evenodd" d="M13.3807 3.37339C11.9867 1.08333 5.24592 0.0653316 1.73461 0.000495281C1.27868 -0.00792357 0.415458 0.0898312 0.207264 0.382333C-0.172937 0.916496 0.00396104 2.71727 0.461823 3.24612C1.43037 4.36482 4.59098 4.29676 6.38031 4.64619C8.21806 5.00507 11.2555 6.31759 12.5533 5.60078C13.0864 5.30639 13.6069 3.74507 13.3807 3.37339Z"/>
</svg>
